<svg viewBox="0 0 124.87 34.4" xmlns="http://www.w3.org/2000/svg" xmlns:xlink="http://www.w3.org/1999/xlink" overflow="hidden"><defs><linearGradient x1="-29.84" y1="-35.63" x2="191.16" y2="51.37" gradientUnits="userSpaceOnUse" id="linear-gradient"><stop offset="0" stop-color="#93CC82"/><stop offset="1" stop-color="#00B5A3"/></linearGradient><linearGradient x1="-26.22" y1="-44.82" x2="194.78" y2="42.18" xlink:href="#linear-gradient" id="linear-gradient-2"></linearGradient><linearGradient x1="-30.07" y1="-35.02" x2="190.93" y2="51.98" xlink:href="#linear-gradient" id="linear-gradient-3"></linearGradient><linearGradient x1="-31.61" y1="-31.11" x2="189.39" y2="55.89" xlink:href="#linear-gradient" id="linear-gradient-4"></linearGradient><linearGradient x1="-30.45" y1="-34.06" x2="190.55" y2="52.94" xlink:href="#linear-gradient" id="linear-gradient-5"></linearGradient><linearGradient x1="-36.33" y1="-19.14" x2="184.67" y2="67.86" xlink:href="#linear-gradient" id="linear-gradient-6"></linearGradient><linearGradient x1="-33.4" y1="-26.57" x2="187.6" y2="60.43" xlink:href="#linear-gradient" id="linear-gradient-7"></linearGradient><linearGradient x1="-31.68" y1="-30.94" x2="189.32" y2="56.06" xlink:href="#linear-gradient" id="linear-gradient-8"></linearGradient><linearGradient x1="-30.84" y1="-33.07" x2="190.16" y2="53.93" xlink:href="#linear-gradient" id="linear-gradient-9"></linearGradient><linearGradient x1="-32.64" y1="-28.49" x2="188.35" y2="58.51" xlink:href="#linear-gradient" id="linear-gradient-10"></linearGradient><linearGradient x1="-31.71" y1="-30.85" x2="189.29" y2="56.15" xlink:href="#linear-gradient" id="linear-gradient-11"></linearGradient><linearGradient x1="-31.71" y1="-30.85" x2="189.29" y2="56.15" xlink:href="#linear-gradient" id="linear-gradient-12"></linearGradient><linearGradient x1="-29.08" y1="-37.54" x2="191.92" y2="49.46" xlink:href="#linear-gradient" id="linear-gradient-13"></linearGradient><linearGradient x1="-26.45" y1="-44.22" x2="194.55" y2="42.78" xlink:href="#linear-gradient" id="linear-gradient-14"></linearGradient><linearGradient x1="-26.45" y1="-44.22" x2="194.55" y2="42.78" xlink:href="#linear-gradient" id="linear-gradient-15"></linearGradient><linearGradient x1="-23.96" y1="-50.54" x2="197.04" y2="36.46" xlink:href="#linear-gradient" id="linear-gradient-16"></linearGradient><linearGradient x1="-23.96" y1="-50.54" x2="197.04" y2="36.46" xlink:href="#linear-gradient" id="linear-gradient-17"></linearGradient><linearGradient x1="-21.79" y1="-56.07" x2="199.21" y2="30.93" xlink:href="#linear-gradient" id="linear-gradient-18"></linearGradient><linearGradient x1="-42.77" y1="-2.78" x2="178.23" y2="84.22" xlink:href="#linear-gradient" id="linear-gradient-19"></linearGradient><linearGradient x1="-44.51" y1="1.65" x2="176.49" y2="88.65" xlink:href="#linear-gradient" id="linear-gradient-20"></linearGradient><linearGradient x1="-37.57" y1="-15.98" x2="183.43" y2="71.02" xlink:href="#linear-gradient" id="linear-gradient-21"></linearGradient><linearGradient x1="-38.94" y1="-12.49" x2="182.06" y2="74.51" xlink:href="#linear-gradient" id="linear-gradient-22"></linearGradient></defs><g id="Layer_2"><g id="Layer_1-2"><path d="M82.66 19.58C83.2123 19.58 83.66 19.1323 83.66 18.58 83.66 18.2877 83.5321 18.01 83.31 17.82L90.17 2.72 90.32 2.72C90.8723 2.72 91.32 2.27228 91.32 1.72 91.32 1.16772 90.8723 0.72 90.32 0.72 89.7677 0.72 89.32 1.16772 89.32 1.72 89.3254 2.01042 89.4568 2.28415 89.68 2.47L82.82 17.61 82.66 17.61C82.1077 17.61 81.66 18.0577 81.66 18.61 81.66 19.1623 82.1077 19.61 82.66 19.61Z" fill="#1C9748"/><path d="M93.61 2C94.072 2.01708 94.4855 1.71524 94.61 1.27L96.47 1.27 98.47 5.55C98.2479 5.74 98.12 6.01769 98.12 6.31 98.12 6.86229 98.5677 7.31 99.12 7.31 99.6723 7.31 100.12 6.86229 100.12 6.31 100.12 5.75772 99.6723 5.31 99.12 5.31L98.96 5.31 96.76 0.73 94.56 0.73C94.4355 0.284763 94.022-0.017082 93.56 1.90735e-08 93.0077 1.90735e-08 92.56 0.447715 92.56 1 92.56 1.55228 93.0077 2 93.56 2Z" fill="#1C9748"/><path d="M92.77 9.92C93.322 9.9023 93.7551 9.44047 93.7374 8.88847 93.7288 8.61771 93.6106 8.36206 93.41 8.18L93.6 7.76 99.15 20 95.86 20C95.7317 19.5587 95.3192 19.2617 94.86 19.28 94.308 19.2976 93.8748 19.7594 93.8924 20.3114 93.91 20.8634 94.3718 21.2966 94.9238 21.279 95.3675 21.2648 95.7488 20.9598 95.86 20.53L100 20.53 93.61 6.5 92.93 8 92.77 8C92.2177 8 91.77 8.44771 91.77 9 91.77 9.55229 92.2177 10 92.77 10Z" fill="#1C9748"/><path d="M89.8 13.28C89.7995 13.5774 89.9315 13.8596 90.16 14.05L87.31 20.56 90.31 20.56C90.4942 21.0806 91.0657 21.3534 91.5863 21.1691 91.9604 21.0367 92.2208 20.6957 92.25 20.3 92.1743 19.7529 91.6695 19.3708 91.1224 19.4465 90.7918 19.4922 90.5059 19.6998 90.36 20L88.12 20 90.65 14.23 90.79 14.23C91.3423 14.23 91.79 13.7823 91.79 13.23 91.79 12.6777 91.3423 12.23 90.79 12.23 90.2377 12.23 89.79 12.6777 89.79 13.23Z" fill="#1C9748"/><path d="M87.07 24C87.532 24.0171 87.9455 23.7152 88.07 23.27L100.69 23.27 104.21 31.19 106.42 31.19C106.54 31.6171 106.926 31.9143 107.37 31.92 107.922 31.92 108.37 31.4723 108.37 30.92 108.37 30.3677 107.922 29.92 107.37 29.92L107.22 29.92 96 5.06C96.2232 4.87415 96.3546 4.60042 96.36 4.31 96.36 3.75772 95.9123 3.31 95.36 3.31 94.8077 3.31 94.36 3.75772 94.36 4.31 94.36 4.86228 94.8077 5.31 95.36 5.31L95.51 5.31 106.71 30.16C106.555 30.2904 106.444 30.4648 106.39 30.66L104.5 30.66 101 22.71 88 22.71C87.8755 22.2648 87.462 21.9629 87 21.98 86.4477 21.98 86 22.4277 86 22.98 86 23.5323 86.4477 23.98 87 23.98Z" fill="#1C9748"/><path d="M99.82 28.51 99.75 28.51 98.57 25.27 87.89 25.27 84.45 33.14 76.57 33.14 80.44 24.33 80.58 24.33C81.1322 24.3401 81.588 23.9006 81.5981 23.3484 81.6082 22.7962 81.1687 22.3404 80.6165 22.3303 80.0643 22.3203 79.6085 22.7597 79.5984 23.3119 79.5929 23.6159 79.7259 23.9059 79.96 24.1L75.76 33.65 84.76 33.65 88.2 25.78 98.2 25.78 99.2 28.67C98.7527 28.994 98.6528 29.6192 98.9768 30.0665 99.3007 30.5138 99.926 30.6137 100.373 30.2897 100.821 29.9657 100.92 29.3405 100.596 28.8932 100.405 28.6288 100.096 28.4746 99.77 28.48Z" fill="#1C9748"/><path d="M89.54 10.69C90.0923 10.69 90.54 10.2423 90.54 9.69 90.54 9.13771 90.0923 8.69 89.54 8.69 88.9877 8.69 88.54 9.13771 88.54 9.69 88.5449 9.98557 88.6804 10.2638 88.91 10.45L79.71 31.14 81.16 31.14C81.3036 31.6733 81.8523 31.9892 82.3856 31.8456 82.9189 31.702 83.2348 31.1533 83.0912 30.62 82.9476 30.0867 82.3989 29.7708 81.8656 29.9144 81.5215 30.0071 81.2527 30.2759 81.16 30.62L80.52 30.62 89.4 10.68Z" fill="#1C9748"/><path d="M101.54 9.7C101.54 9.14771 101.092 8.7 100.54 8.7 99.9877 8.7 99.54 9.14771 99.54 9.7 99.54 10.2523 99.9877 10.7 100.54 10.7L100.69 10.7 110.84 33.17 103.73 33.17C103.61 32.7429 103.224 32.4457 102.78 32.44 102.228 32.44 101.78 32.8877 101.78 33.44 101.78 33.9923 102.228 34.44 102.78 34.44 103.221 34.4356 103.607 34.1431 103.73 33.72L111.66 33.72 101.18 10.46C101.406 10.2719 101.538 9.99393 101.54 9.7Z" fill="#1C9748"/><path d="M92.77 16.79C92.2177 16.79 91.77 17.2377 91.77 17.79 91.77 18.3423 92.2177 18.79 92.77 18.79 93.232 18.8071 93.6455 18.5052 93.77 18.06L96.23 18.06 94.61 14.63C94.8295 14.4423 94.9571 14.1688 94.96 13.88 94.96 13.3277 94.5123 12.88 93.96 12.88 93.4077 12.88 92.96 13.3277 92.96 13.88 92.96 14.4323 93.4077 14.88 93.96 14.88L94.13 14.88 95.39 17.57 93.72 17.57C93.6194 17.1231 93.2279 16.8017 92.77 16.79Z" fill="#1C9748"/><path d="M123.88 32.14C123.328 32.14 122.88 32.5877 122.88 33.14 122.88 33.6923 123.328 34.14 123.88 34.14 124.432 34.14 124.88 33.6923 124.88 33.14 124.88 32.5877 124.432 32.14 123.88 32.14Z" fill="#1C9748"/><path d="M119.28 29.58C119.832 29.58 120.28 29.1323 120.28 28.58 120.28 28.0277 119.832 27.58 119.28 27.58 118.728 27.58 118.28 28.0277 118.28 28.58 118.28 29.1323 118.728 29.58 119.28 29.58Z" fill="#1C9748"/><path d="M123.88 27.6C123.715 27.6039 123.554 27.6485 123.41 27.73L120.15 24.51C120.229 24.3697 120.271 24.2111 120.27 24.05 120.27 23.4977 119.822 23.05 119.27 23.05 118.718 23.05 118.27 23.4977 118.27 24.05 118.27 24.6023 118.718 25.05 119.27 25.05 119.438 25.0508 119.603 25.0096 119.75 24.93L123 28.13C122.84 28.4157 122.84 28.7643 123 29.05L119.75 32.27C119.604 32.1869 119.438 32.1422 119.27 32.14 118.718 32.14 118.27 32.5877 118.27 33.14 118.27 33.6923 118.718 34.14 119.27 34.14 119.822 34.14 120.27 33.6923 120.27 33.14 120.272 32.9787 120.23 32.8198 120.15 32.68L123.41 29.46C123.554 29.5415 123.715 29.5861 123.88 29.59 124.432 29.59 124.88 29.1423 124.88 28.59 124.88 28.0377 124.432 27.59 123.88 27.59Z" fill="#1C9748"/><path d="M123.88 23.06C123.715 23.0639 123.554 23.1085 123.41 23.19L120.15 20C120.229 19.8597 120.271 19.7011 120.27 19.54 120.27 18.9877 119.822 18.54 119.27 18.54 118.718 18.54 118.27 18.9877 118.27 19.54 118.27 20.0923 118.718 20.54 119.27 20.54 119.437 20.5384 119.602 20.4973 119.75 20.42L123 23.59C122.74 24.0775 122.925 24.6831 123.413 24.9426 123.9 25.2022 124.506 25.0173 124.765 24.5298 125.025 24.0423 124.84 23.4367 124.353 23.1772 124.204 23.0982 124.038 23.0579 123.87 23.06Z" fill="#1C9748"/><path d="M123.88 14C123.328 14 122.88 14.4477 122.88 15 122.88 15.5523 123.328 16 123.88 16 124.432 16 124.88 15.5523 124.88 15 124.88 14.4477 124.432 14 123.88 14Z" fill="#1C9748"/><path d="M123.88 9.43C123.328 9.43 122.88 9.87772 122.88 10.43 122.882 10.5908 122.924 10.7485 123 10.89L119.75 14.11C119.603 14.0304 119.438 13.9892 119.27 13.99 118.718 13.99 118.27 14.4377 118.27 14.99 118.27 15.5423 118.718 15.99 119.27 15.99 119.437 15.9884 119.602 15.9473 119.75 15.87L123 19C122.924 19.1453 122.883 19.3062 122.88 19.47 122.88 20.0223 123.328 20.47 123.88 20.47 124.432 20.47 124.88 20.0223 124.88 19.47 124.88 18.9177 124.432 18.47 123.88 18.47 123.716 18.4731 123.555 18.5142 123.41 18.59L120.15 15.38C120.23 15.2365 120.272 15.0745 120.27 14.91 120.271 14.7489 120.229 14.5903 120.15 14.45L123.41 11.23C123.554 11.3115 123.715 11.3561 123.88 11.36 124.432 11.36 124.88 10.9123 124.88 10.36 124.88 9.80771 124.432 9.36 123.88 9.36Z" fill="#1C9748"/><circle cx="119.28" cy="5.85" r="0.99" fill="#1C9748"/><path d="M123.88 4.86C123.708 4.86053 123.539 4.9053 123.39 4.99L120.15 1.74C120.226 1.59471 120.267 1.43384 120.27 1.27 120.27 0.717715 119.822 0.27 119.27 0.27 118.718 0.27 118.27 0.717715 118.27 1.27 118.27 1.82228 118.718 2.27 119.27 2.27 119.434 2.26687 119.595 2.22579 119.74 2.15L123 5.4C122.925 5.53847 122.884 5.69265 122.88 5.85 122.882 6.01839 122.927 6.1835 123.01 6.33L119.75 9.56C119.604 9.47694 119.438 9.43222 119.27 9.43 118.718 9.43 118.27 9.87772 118.27 10.43 118.27 10.9823 118.718 11.43 119.27 11.43 119.822 11.43 120.27 10.9823 120.27 10.43 120.272 10.2687 120.23 10.1098 120.15 9.97L123.43 6.73C123.569 6.80138 123.723 6.83906 123.88 6.84 124.432 6.84 124.88 6.39228 124.88 5.84 124.88 5.28772 124.432 4.84 123.88 4.84Z" fill="#1C9748"/><path d="M123.88 2.26C124.432 2.26 124.88 1.81228 124.88 1.26 124.88 0.707715 124.432 0.26 123.88 0.26 123.328 0.26 122.88 0.707715 122.88 1.26 122.88 1.81228 123.328 2.26 123.88 2.26Z" fill="#1C9748"/><path d="M19.38 15.9C20.7464 15.1453 21.8413 13.9805 22.51 12.57L21.3 8.83 19.39 8.06C19.0037 8.64542 18.2159 8.80682 17.6305 8.4205 17.0451 8.03418 16.8837 7.24642 17.27 6.661 17.6563 6.07558 18.4441 5.91418 19.0295 6.3005 19.3855 6.53545 19.5998 6.93344 19.6 7.36 19.6054 7.43324 19.6054 7.50677 19.6 7.58L21.74 8.44 22.83 11.82C23.1159 10.9796 23.2612 10.0977 23.26 9.21 23.3895 6.68749 22.2672 4.26328 20.26 2.73 18.37 1.25 15.63 0.48 12.26 0.48L5.58 0.48 5.58 2.77 11.37 2.77C11.5136 2.08345 12.1866 1.6433 12.8731 1.7869 13.5596 1.93049 13.9998 2.60345 13.8562 3.29 13.7126 3.97655 13.0396 4.4167 12.3531 4.2731 11.8592 4.1698 11.4733 3.7839 11.37 3.29L10 3.29 10 4.48C10.6865 4.62359 11.1267 5.29656 10.9831 5.9831 10.8395 6.66965 10.1665 7.1098 9.48 6.9662 8.79345 6.82261 8.3533 6.14965 8.4969 5.4631 8.6002 4.9692 8.9861 4.5833 9.48 4.48L9.48 3.29 5.06 3.29 5.06 0.48 0 0.48 0 10.05 4.3 10.05 4.3 16.86 11.37 16.86C11.5136 16.1735 12.1866 15.7333 12.8731 15.8769 13.5596 16.0205 13.9998 16.6935 13.8562 17.38 13.7126 18.0665 13.0396 18.5067 12.3531 18.3631 11.8592 18.2598 11.4733 17.8739 11.37 17.38L4.3 17.38 4.3 22.3C4.98655 22.4436 5.4267 23.1166 5.2831 23.8031 5.13951 24.4896 4.46655 24.9298 3.78 24.7862 3.09345 24.6426 2.65331 23.9696 2.7969 23.2831 2.9002 22.7892 3.2861 22.4033 3.78 22.3L3.78 10.57 0 10.57 0 33.75 10.92 33.75C16.54 33.75 18.75 33.44 21.8 30.88 23.4215 29.4289 24.4624 27.4395 24.73 25.28L21.78 25.28C21.6364 25.9665 20.9634 26.4067 20.2769 26.2631 19.5904 26.1195 19.1502 25.4465 19.2938 24.76 19.4374 24.0735 20.1104 23.6333 20.7969 23.7769 21.2908 23.8802 21.6767 24.2661 21.78 24.76L24.78 24.76C24.8197 24.388 24.8397 24.0141 24.84 23.64 25.0245 20.1091 22.7682 16.9107 19.38 15.9ZM13.76 12.8C13.0372 13.049 12.2735 13.1576 11.51 13.12L8.51 13.12 8.51 8 11.51 8C12.2862 7.95397 13.064 8.05926 13.8 8.31 14.6705 8.68379 15.1999 9.57695 15.11 10.52 15.178 11.4868 14.6404 12.3947 13.76 12.8ZM18 31.9C17.3993 31.9043 16.8777 31.487 16.75 30.9L8.24 30.9 8.24 28.74 5.29 28.74C5.14641 29.4265 4.47344 29.8667 3.7869 29.7231 3.10035 29.5795 2.6602 28.9065 2.8038 28.22 2.94739 27.5335 3.62035 27.0933 4.3069 27.2369 4.8008 27.3402 5.1867 27.7261 5.29 28.22L12.35 28.22 12.35 26.29 8.5 26.29 8.5 20.22 12.5 20.22C13.3849 20.1737 14.2706 20.2959 15.11 20.58 16.152 20.9628 16.8106 21.9937 16.72 23.1 16.8174 24.3058 16.1211 25.4354 15 25.89 14.3139 26.1539 13.5851 26.2895 12.85 26.29L12.85 28.74 8.76 28.74 8.76 30.37 16.76 30.37C16.9036 29.6835 17.5766 29.2433 18.2631 29.3869 18.9496 29.5305 19.3898 30.2035 19.2462 30.89 19.1229 31.4796 18.6024 31.9015 18 31.9Z" fill="#1C9748"/><path d="M34.62 30 30 30 30 33.74 35.6 33.74 35.6 31C35.1051 30.8884 34.7216 30.497 34.62 30Z" fill="#1C9748"/><path d="M56.87 0.48 48 0.48 40.13 12.86 45.4 12.86 46.81 10.79 43.5 10.79 45.5 7.88C45.2559 7.65182 45.1151 7.33413 45.11 7 45.0994 6.28763 45.6683 5.70154 46.3806 5.69092 47.093 5.68031 47.6791 6.24919 47.6897 6.96156 47.7003 7.67393 47.1314 8.26002 46.4191 8.27064 46.241 8.27329 46.0642 8.23903 45.9 8.17L44.48 10.27 47.17 10.27 51.43 4.06C50.944 3.55427 50.96 2.75031 51.4657 2.2643 51.9714 1.7783 52.7754 1.79429 53.2614 2.30001 53.7474 2.80574 53.7314 3.6097 53.2257 4.09571 52.9902 4.32201 52.6766 4.44889 52.35 4.45 52.1825 4.45113 52.0162 4.4206 51.86 4.36L45.67 13.36 41.87 13.36 53.13 29.85C53.2856 29.7862 53.4518 29.7523 53.62 29.75 54.3269 29.7445 54.9044 30.3131 54.9099 31.02 54.9155 31.7269 54.3469 32.3044 53.64 32.3099 52.9331 32.3154 52.3555 31.7468 52.35 31.0399 52.3474 30.7044 52.4767 30.3812 52.71 30.14L48.51 24 45.74 24 47.18 26.19C47.3306 26.1342 47.4894 26.1038 47.65 26.1 48.3514 26.1 48.92 26.6686 48.92 27.37 48.92 28.0714 48.3514 28.64 47.65 28.64 46.9486 28.64 46.38 28.0714 46.38 27.37 46.3794 27.0358 46.5126 26.7153 46.75 26.48L44.75 23.48 48.12 23.48 41.24 13.38 39.8 13.38 38.48 15.46 38.48 0.48 30 0.48 30 11.3 35.6 11.3 35.6 8.89 32.35 8.89 32.35 4.28C31.7672 4.14555 31.3532 3.62811 31.35 3.03 31.3538 2.32861 31.9255 1.76311 32.6269 1.76692 33.3283 1.77073 33.8938 2.34241 33.89 3.04381 33.8867 3.64239 33.4659 4.15744 32.88 4.28L32.88 8.37 35.6 8.37 35.6 7C34.9135 6.85641 34.4733 6.18344 34.6169 5.4969 34.7605 4.81035 35.4335 4.3702 36.12 4.5138 36.8065 4.65739 37.2467 5.33035 37.1031 6.0169 36.9998 6.5108 36.6139 6.8967 36.12 7L36.12 11.85 30 11.85 30 16.85 41.4 16.85 43.54 20.15C43.6861 20.0905 43.8423 20.06 44 20.06 44.7014 20.06 45.27 20.6286 45.27 21.33 45.27 22.0314 44.7014 22.6 44 22.6 43.2986 22.6 42.73 22.0314 42.73 21.33 42.7282 20.9906 42.8655 20.6654 43.11 20.43L41.11 17.37 32.87 17.37 32.87 21.07 34.62 21.07C34.7636 20.3835 35.4366 19.9433 36.1231 20.0869 36.8096 20.2305 37.2498 20.9035 37.1062 21.59 36.9626 22.2765 36.2896 22.7167 35.6031 22.5731 35.1092 22.4698 34.7233 22.0839 34.62 21.59L32.87 21.59 32.87 24.31C33.5565 24.4536 33.9967 25.1266 33.8531 25.8131 33.7095 26.4996 33.0365 26.9398 32.35 26.7962 31.6635 26.6526 31.2233 25.9796 31.3669 25.2931 31.4702 24.7992 31.8561 24.4133 32.35 24.31L32.35 17.38 30 17.38 30 29.49 34.63 29.49C34.776 28.804 35.4506 28.3662 36.1366 28.5122 36.8226 28.6583 37.2604 29.3328 37.1143 30.0188 37.0087 30.5152 36.6177 30.901 36.12 31L36.12 33.75 38.48 33.75 38.48 19.37 47.66 33.75 58 33.75 45.9 17Z" fill="#1C9748"/><path d="M67 25C64.6859 25 62.81 26.8759 62.81 29.19 62.81 31.5041 64.6859 33.38 67 33.38 69.3141 33.38 71.19 31.5041 71.19 29.19 71.19 26.8759 69.3141 25 67 25ZM67 32.65C65.0891 32.65 63.54 31.1009 63.54 29.19 63.54 27.2791 65.0891 25.73 67 25.73 68.9109 25.73 70.46 27.2791 70.46 29.19 70.4766 31.1008 68.941 32.6633 67.0301 32.6799 67.0201 32.68 67.01 32.68 67 32.68Z" fill="#1C9748"/><circle cx="67.02" cy="29.22" r="1.71" fill="#1C9748"/></g></g></svg>